<svg width="55" height="55" viewBox="0 0 55 55" fill="none" xmlns="http://www.w3.org/2000/svg">
<path d="M49.625 27.5C49.625 31.8759 48.3274 36.1536 45.8963 39.792C43.4651 43.4304 40.0097 46.2663 35.9669 47.9408C31.9241 49.6154 27.4755 50.0536 23.1836 49.1999C18.8918 48.3462 14.9495 46.239 11.8553 43.1447C8.76103 40.0505 6.65382 36.1082 5.80013 31.8164C4.94643 27.5245 5.38458 23.0759 7.05917 19.0331C8.73375 14.9903 11.5696 11.5349 15.208 9.10374C18.8464 6.67261 23.1241 5.375 27.5 5.375C33.695 5.375 39.6196 7.83333 44.0692 12.1108L49.625 17.6667" stroke="white" stroke-width="4" stroke-linecap="round" stroke-linejoin="round"/>
<path d="M49.625 5.375V17.6667H37.3333" stroke="white" stroke-width="4" stroke-linecap="round" stroke-linejoin="round"/>
<path d="M26.8333 18V37.6667" stroke="white" stroke-width="4" stroke-linecap="round" stroke-linejoin="round"/>
<path d="M17 27.8333H36.6667" stroke="white" stroke-width="4" stroke-linecap="round" stroke-linejoin="round"/>
</svg>
